<svg width="80" height="80" viewBox="0 0 80 80" fill="none" xmlns="http://www.w3.org/2000/svg">
<g filter="url(#filter0_d_9_215)">
<circle cx="40" cy="36" r="36" fill="#F35764"/>
</g>
<g clip-path="url(#clip0_9_215)">
<path d="M35.2429 22.0025C35.5321 21.3852 36.1268 21 36.775 21H43.225C43.8732 21 44.4679 21.3852 44.7571 22.0025L45.1429 22.8125H50.2857C51.2339 22.8125 52 23.6225 52 24.625C52 25.6275 51.2339 26.4375 50.2857 26.4375H29.7143C28.7661 26.4375 28 25.6275 28 24.625C28 23.6225 28.7661 22.8125 29.7143 22.8125H34.8571L35.2429 22.0025ZM29.7143 28.25H50.2857V46.375C50.2857 48.3744 48.7482 50 46.8571 50H33.1429C31.2518 50 29.7143 48.3744 29.7143 46.375V28.25ZM34.8571 31.875C34.3857 31.875 34 32.2828 34 32.7812V45.4688C34 45.9672 34.3857 46.375 34.8571 46.375C35.3286 46.375 35.7143 45.9672 35.7143 45.4688V32.7812C35.7143 32.2828 35.3286 31.875 34.8571 31.875ZM40 31.875C39.5286 31.875 39.1429 32.2828 39.1429 32.7812V45.4688C39.1429 45.9672 39.5286 46.375 40 46.375C40.4714 46.375 40.8571 45.9672 40.8571 45.4688V32.7812C40.8571 32.2828 40.4714 31.875 40 31.875ZM45.1429 31.875C44.6714 31.875 44.2857 32.2828 44.2857 32.7812V45.4688C44.2857 45.9672 44.6714 46.375 45.1429 46.375C45.6143 46.375 46 45.9672 46 45.4688V32.7812C46 32.2828 45.6143 31.875 45.1429 31.875Z" fill="white"/>
</g>
<defs>
<filter id="filter0_d_9_215" x="0" y="0" width="80" height="80" filterUnits="userSpaceOnUse" color-interpolation-filters="sRGB">
<feFlood flood-opacity="0" result="BackgroundImageFix"/>
<feColorMatrix in="SourceAlpha" type="matrix" values="0 0 0 0 0 0 0 0 0 0 0 0 0 0 0 0 0 0 127 0" result="hardAlpha"/>
<feOffset dy="4"/>
<feGaussianBlur stdDeviation="2"/>
<feComposite in2="hardAlpha" operator="out"/>
<feColorMatrix type="matrix" values="0 0 0 0 0 0 0 0 0 0 0 0 0 0 0 0 0 0 0.25 0"/>
<feBlend mode="normal" in2="BackgroundImageFix" result="effect1_dropShadow_9_215"/>
<feBlend mode="normal" in="SourceGraphic" in2="effect1_dropShadow_9_215" result="shape"/>
</filter>
<clipPath id="clip0_9_215">
<rect width="24" height="29" fill="white" transform="translate(28 21)"/>
</clipPath>
</defs>
</svg>
